<svg xmlns="http://www.w3.org/2000/svg" xmlns:xlink="http://www.w3.org/1999/xlink" xml:space="preserve" version="1.1" style="shape-rendering:geometricPrecision;text-rendering:geometricPrecision;image-rendering:optimizeQuality;" viewBox="0 0 1.984 1.2" x="0px" y="0px" fill-rule="evenodd" clip-rule="evenodd"><defs><style type="text/css">
   
    .fil0 {fill:black}
   
  </style></defs><g><g><path class="fil0" d="M0.965 0.016l-0.329 0.541 -0.588 -0.349c-0.015,-0.009 -0.035,-0.004 -0.044,0.011 -0.004,0.008 -0.005,0.017 -0.002,0.026l0.304 0.931c0.004,0.014 0.016,0.024 0.031,0.024l1.311 0c0.015,0 0.027,-0.011 0.031,-0.026l0.304 -0.929c0.005,-0.017 -0.004,-0.035 -0.02,-0.04 -0.009,-0.003 -0.019,-0.002 -0.027,0.003l-0.587 0.349 -0.329 -0.541c-0.013,-0.021 -0.042,-0.021 -0.055,0z"></path></g></g></svg>